<svg width="115" height="57" viewBox="0 0 115 57" fill="none" xmlns="http://www.w3.org/2000/svg">
<path d="M20.92 45.8696C18.7333 45.8696 16.9867 45.3629 15.68 44.3496C14.4 43.3362 13.76 41.9229 13.76 40.1096C13.76 38.2962 14.2933 36.8696 15.36 35.8296C16.4267 34.7896 18.12 34.0562 20.44 33.6296L27.96 32.2296C27.96 30.4429 27.5333 29.1096 26.68 28.2296C25.8533 27.3496 24.6 26.9096 22.92 26.9096C21.4533 26.9096 20.2933 27.2429 19.44 27.9096C18.5867 28.5496 18 29.4829 17.68 30.7096L14.12 30.4296C14.52 28.4296 15.48 26.8162 17 25.5896C18.5467 24.3362 20.52 23.7096 22.92 23.7096C25.64 23.7096 27.72 24.4829 29.16 26.0296C30.6 27.5496 31.32 29.6562 31.32 32.3496V41.1096C31.32 41.5896 31.4 41.9362 31.56 42.1496C31.7467 42.3362 32.04 42.4296 32.44 42.4296H33.28V45.3896C33.1733 45.4162 33 45.4296 32.76 45.4296C32.52 45.4562 32.2667 45.4696 32 45.4696C31.04 45.4696 30.2533 45.3229 29.64 45.0296C29.0533 44.7096 28.6267 44.2296 28.36 43.5896C28.0933 42.9229 27.96 42.0562 27.96 40.9896L28.36 41.0696C28.1733 41.9762 27.72 42.8029 27 43.5496C26.28 44.2696 25.3867 44.8429 24.32 45.2696C23.2533 45.6696 22.12 45.8696 20.92 45.8696ZM21.24 42.9096C22.6533 42.9096 23.8533 42.6429 24.84 42.1096C25.8533 41.5496 26.6267 40.8029 27.16 39.8696C27.6933 38.9096 27.96 37.8429 27.96 36.6696V35.1496L21.08 36.4296C19.64 36.6962 18.64 37.1096 18.08 37.6696C17.5467 38.2029 17.28 38.9096 17.28 39.7896C17.28 40.7762 17.6267 41.5496 18.32 42.1096C19.04 42.6429 20.0133 42.9096 21.24 42.9096ZM33.875 45.3896V24.1896H36.835L36.995 29.5496L36.675 29.4296C36.9417 27.6162 37.515 26.2962 38.395 25.4696C39.3017 24.6162 40.5017 24.1896 41.995 24.1896H44.075V27.3896H42.035C40.9683 27.3896 40.075 27.5896 39.355 27.9896C38.6617 28.3629 38.1283 28.9362 37.755 29.7096C37.4083 30.4562 37.235 31.4162 37.235 32.5896V45.3896H33.875ZM52.5097 45.8696C50.5364 45.8696 48.8164 45.4162 47.3497 44.5096C45.9097 43.6029 44.7897 42.3229 43.9897 40.6696C43.1897 38.9896 42.7897 37.0296 42.7897 34.7896C42.7897 32.5496 43.1897 30.6029 43.9897 28.9496C44.7897 27.2962 45.9097 26.0162 47.3497 25.1096C48.8164 24.1762 50.5364 23.7096 52.5097 23.7096C54.1364 23.7096 55.5764 24.0029 56.8297 24.5896C58.1097 25.1496 59.1497 25.9762 59.9497 27.0696C60.7497 28.1629 61.2697 29.4962 61.5097 31.0696L57.9897 31.3096C57.7497 29.8962 57.1364 28.8162 56.1497 28.0696C55.163 27.2962 53.9497 26.9096 52.5097 26.9096C50.563 26.9096 49.043 27.6162 47.9497 29.0296C46.8564 30.4162 46.3097 32.3362 46.3097 34.7896C46.3097 37.2429 46.8564 39.1762 47.9497 40.5896C49.043 41.9762 50.563 42.6696 52.5097 42.6696C53.9497 42.6696 55.163 42.2696 56.1497 41.4696C57.1364 40.6696 57.7497 39.4696 57.9897 37.8696L61.5097 38.1096C61.2697 39.6829 60.7497 41.0562 59.9497 42.2296C59.1497 43.3762 58.1097 44.2696 56.8297 44.9096C55.5764 45.5496 54.1364 45.8696 52.5097 45.8696ZM62.475 45.3896V16.9896H65.835V28.8696L65.435 28.7896C65.7017 27.6162 66.155 26.6562 66.795 25.9096C67.435 25.1629 68.2217 24.6162 69.155 24.2696C70.0883 23.8962 71.115 23.7096 72.235 23.7096C73.755 23.7096 75.035 24.0562 76.075 24.7496C77.1417 25.4162 77.9417 26.3629 78.475 27.5896C79.035 28.7896 79.315 30.1762 79.315 31.7496V45.3896H75.955V32.7096C75.955 30.6562 75.5817 29.1362 74.835 28.1496C74.115 27.1629 73.0083 26.6696 71.515 26.6696C69.8083 26.6696 68.435 27.1896 67.395 28.2296C66.355 29.2696 65.835 30.7762 65.835 32.7496V45.3896H62.475ZM81.0772 45.3896V40.8696H85.5972V45.3896H81.0772Z" fill="black"/>
<path d="M102.593 15.526C102.477 15.1008 102.342 14.715 102.176 14.3711C101.448 12.9359 100.621 11.5687 99.3679 10.5343C97.2951 8.81506 94.5108 8.16236 91.7717 7.57781C89.0211 6.98739 86.0854 6.76004 83.1379 6.68286C80.1668 6.61025 77.1981 6.69288 74.1983 6.84869C71.2064 7.00556 68.1985 7.23904 65.1852 7.51552C63.1684 7.69898 61.1017 7.91024 59.0681 8.13181C58.1884 8.22684 57.2471 8.33578 56.3809 8.43419C55.7204 8.51001 55.051 8.58898 54.3727 8.67109C54.2784 8.68243 54.1846 8.67559 54.1117 8.6508C54.0388 8.62595 53.9928 8.58547 53.9839 8.53652C53.975 8.48754 54.0039 8.43316 54.0635 8.38412C54.1231 8.33519 54.2087 8.29579 54.301 8.2732C54.9709 8.10987 55.6321 7.94968 56.2846 7.79263C56.9933 7.62109 57.7637 7.44057 58.4904 7.27045C58.6416 7.45158 58.8279 7.5766 59.1365 7.59322C59.294 7.60168 59.5166 7.57851 59.6717 7.51377C59.8088 7.45598 59.9156 7.37632 60.013 7.30119C60.1155 7.22249 60.2127 7.14785 60.3463 7.10492C60.5729 7.03205 60.7784 6.91002 60.9932 6.78223C61.0714 6.73572 61.151 6.68839 61.2331 6.64245C61.9337 6.48529 62.625 6.33227 63.3439 6.17799C63.6239 6.15602 63.8791 6.13416 64.091 6.09297C64.2812 6.05603 64.449 5.98667 64.6139 5.90728C64.7216 5.88454 64.8291 5.86192 64.9363 5.8394C65.648 5.69126 66.3667 5.54583 67.0638 5.40725C67.6078 5.38504 68.2298 5.35178 68.9864 5.27448C69.3141 5.24097 69.637 5.22853 69.9448 5.21759C70.4127 5.19971 70.8588 5.18391 71.2326 5.1091C71.4834 5.05897 71.7513 5.05617 72.0162 5.05429C72.3642 5.05259 72.7411 5.0487 73.0562 4.93502C73.2557 4.86337 73.4363 4.78346 73.6029 4.70971C73.868 4.59239 74.0981 4.49068 74.3119 4.46366C74.7091 4.41334 75.0795 4.31272 75.3858 4.22693C75.7586 4.12334 76.0678 4.03829 76.347 4.07653C76.3893 4.08233 76.4378 4.09072 76.4923 4.10036C76.7758 4.15155 77.2664 4.23064 77.9141 4.11778C78.1457 4.07756 78.3589 4.00183 78.5667 3.92823C78.8706 3.82098 79.1867 3.71689 79.5163 3.73585C79.5659 3.73867 79.6185 3.75932 79.6663 3.77823C79.7271 3.80228 79.78 3.82334 79.8095 3.80096C79.8959 3.73531 80.0344 3.6606 80.1843 3.57982C80.2944 3.52046 80.4108 3.45777 80.5175 3.3929C81.3929 3.31919 82.2099 3.26077 83.0958 3.21738C83.4934 3.19773 83.8854 3.18175 84.2717 3.16949C84.4781 3.26182 84.6886 3.34601 84.9075 3.41134C85.1945 3.4968 85.5593 3.52808 86.0278 3.57532C86.3863 3.61061 86.7986 3.65492 87.2643 3.73787C88.1451 3.89158 89.0242 3.94513 89.6325 3.95524C89.7576 3.95681 89.8829 3.95814 90.0162 3.95995C90.5114 3.96837 91.1638 3.9751 92.3664 4.12433C93.509 4.26982 94.4668 4.50147 95.2017 4.71178C95.5725 4.81769 95.865 4.9104 96.109 4.98464C96.5196 5.10936 96.9956 5.27328 97.4939 5.47218C98.2526 5.77075 99.0105 6.14642 99.439 6.35998C99.5929 6.43579 99.754 6.51537 99.9258 6.60429C100.4 6.85143 100.976 7.17021 101.699 7.72455C102.451 8.30797 102.854 8.75146 103.234 9.2289C103.388 9.42428 103.474 9.64059 103.556 9.86131C103.673 10.1752 103.784 10.5004 104.073 10.8296C104.141 10.906 104.22 10.9826 104.302 11.0639C104.452 11.213 104.614 11.3787 104.728 11.5831C104.768 11.6539 104.788 11.7241 104.808 11.7934C104.83 11.8697 104.851 11.9443 104.895 12.0165C105.016 12.2166 105.136 12.413 105.246 12.5983C105.29 12.6725 105.332 12.7456 105.372 12.817C105.569 13.1745 105.703 13.4906 105.761 13.6952C105.862 14.0535 106.004 14.4166 106.126 14.8074C106.22 15.1135 106.293 15.3894 106.33 15.6829C106.44 16.532 106.524 17.6298 106.518 18.7407C106.516 19.1765 106.427 19.511 106.299 19.9446C106.221 20.2102 106.122 20.5347 106.018 20.8958C105.959 21.1038 105.964 21.2925 105.966 21.4689C105.968 21.6313 105.968 21.7833 105.914 21.9272C105.867 22.0541 105.776 22.1212 105.69 22.1814C105.595 22.2465 105.506 22.3069 105.486 22.4416C105.475 22.5132 105.488 22.6073 105.503 22.72C105.509 22.7646 105.514 22.8123 105.519 22.8625C105.506 22.8563 105.493 22.8523 105.484 22.8497C105.416 22.8312 105.344 22.9562 105.272 23.0788C105.243 23.1277 105.214 23.1765 105.186 23.2153C105.083 23.3575 104.984 23.6596 104.919 23.8791C104.892 23.9737 104.844 24.0528 104.788 24.145C104.739 24.2269 104.683 24.3191 104.627 24.4422C104.595 24.5124 104.558 24.5621 104.526 24.6031C104.503 24.6327 104.484 24.6579 104.472 24.6835C104.463 24.7057 104.476 24.7306 104.49 24.7586C104.501 24.7788 104.512 24.8007 104.516 24.8244C104.526 24.8811 104.513 24.9455 104.49 24.9859C104.479 25.0046 104.466 25.0179 104.454 25.031C104.439 25.0464 104.424 25.0616 104.412 25.0856C104.359 25.1956 104.344 25.3087 104.326 25.43C104.308 25.5625 104.287 25.7014 104.215 25.8389C104.193 25.8822 104.161 25.9256 104.131 25.9676C104.099 26.0115 104.068 26.0543 104.049 26.0935C103.973 26.2528 103.962 26.4255 103.95 26.5853C103.943 26.6917 103.935 26.7918 103.91 26.875C103.863 27.0285 103.888 27.1308 103.906 27.2065C103.915 27.2457 103.923 27.2778 103.918 27.3062C103.906 27.3297 103.895 27.3535 103.883 27.3766C103.87 27.397 103.857 27.418 103.85 27.4398C103.849 27.4415 103.849 27.4432 103.848 27.4448C103.781 27.5736 103.708 27.6977 103.636 27.821C103.472 28.0974 103.307 28.3734 103.203 28.6826C103.18 28.7498 103.175 28.8259 103.169 28.9034C103.161 28.9983 103.154 29.0957 103.114 29.181C103.019 29.3845 102.889 29.5756 102.761 29.7633C102.566 30.0485 102.379 30.3139 102.311 30.6143C102.289 30.7131 102.28 30.8159 102.271 30.9192C102.267 30.9767 102.262 31.0346 102.254 31.0919C102.23 31.0673 102.204 31.0484 102.181 31.0309C102.132 30.9947 102.09 30.9636 102.073 30.8976C102.034 30.7415 101.966 30.5548 101.866 30.5255C101.839 30.5175 101.812 30.5013 101.786 30.4847C101.718 30.443 101.65 30.4006 101.569 30.4888C101.514 30.5483 101.379 30.7034 101.379 30.8431C101.379 30.8736 101.395 30.8998 101.413 30.929C101.445 30.9815 101.483 31.0439 101.444 31.1584C101.438 31.1776 101.43 31.1984 101.422 31.2198C101.39 31.3051 101.354 31.3999 101.375 31.4518C101.4 31.5117 101.453 31.5273 101.515 31.5454C101.596 31.5691 101.693 31.5969 101.759 31.7335C101.772 31.7605 101.764 31.796 101.758 31.8229C101.753 31.8418 101.75 31.8563 101.756 31.8607C101.762 31.8657 101.78 31.8677 101.803 31.8702C101.883 31.8789 102.023 31.8941 101.941 32.0741C101.919 32.1228 101.886 32.1749 101.857 32.2216C101.814 32.2904 101.778 32.3475 101.793 32.3652C101.799 32.3718 101.806 32.3779 101.814 32.3838C101.783 32.4403 101.752 32.4969 101.721 32.5534C101.661 32.6159 101.612 32.7207 101.549 32.8514C101.534 32.8831 101.518 32.9165 101.501 32.951C101.439 33.0622 101.377 33.1733 101.315 33.2842C101.259 33.369 101.195 33.4561 101.118 33.5437C100.965 33.719 100.792 33.8507 100.622 33.9785C100.551 34.0324 100.48 34.0856 100.411 34.1412C100.422 34.1112 100.431 34.0836 100.435 34.061C100.462 33.9058 100.406 33.809 100.355 33.7201C100.321 33.661 100.289 33.6053 100.284 33.5382C100.275 33.4155 100.204 33.3905 100.151 33.3719C100.124 33.3623 100.101 33.3542 100.095 33.3354C100.091 33.3202 100.098 33.2948 100.105 33.2684C100.112 33.2455 100.118 33.2218 100.117 33.2039C100.105 32.9872 100.023 33.0084 99.9031 33.0387C99.837 33.0554 99.7596 33.0746 99.6762 33.0588C99.5901 33.0377 99.5709 33.0199 99.585 32.9175C99.5124 32.9656 99.4398 33.0135 99.3671 33.0614C99.3559 33.0891 99.3691 33.1213 99.3938 33.1699C99.4378 33.2566 99.3782 33.4339 99.3311 33.5723C99.3093 33.6364 99.2904 33.6922 99.2858 33.7269C99.2614 33.9116 99.3643 33.9085 99.455 33.9056C99.505 33.904 99.5511 33.9025 99.5702 33.9326C99.5784 33.9455 99.5951 33.942 99.612 33.9386C99.625 33.936 99.6384 33.9332 99.6481 33.9379C99.7188 33.9725 99.722 34.0916 99.7248 34.2023C99.7264 34.2656 99.728 34.3262 99.742 34.3666C99.7463 34.3789 99.7516 34.3897 99.7568 34.4C99.7645 34.415 99.7717 34.4295 99.7748 34.4479C99.7817 34.4896 99.7644 34.559 99.7452 34.6351C99.7354 34.6741 99.7251 34.7149 99.7174 34.7545C99.7075 34.8058 99.7263 34.8364 99.746 34.8684C99.7599 34.8911 99.774 34.9147 99.779 34.9467C99.7878 35.0046 99.7542 35.0941 99.7229 35.1769C99.7093 35.213 99.6962 35.248 99.6872 35.2786C99.6835 35.291 99.6853 35.2989 99.6911 35.3035C99.6442 35.442 99.6006 35.5749 99.5581 35.7041C99.3462 36.3491 99.153 36.9179 98.6582 37.6304C98.5647 37.7649 98.48 37.9187 98.4005 38.0805C98.0869 38.5635 97.7762 39.032 97.4567 39.5068C97.3378 39.5684 97.2159 39.6572 97.0921 39.7735C96.8597 39.9918 96.6822 40.2506 96.4736 40.5519C96.3174 40.7777 96.1395 41.0342 95.912 41.3099C95.5328 41.7678 95.1433 42.2604 94.7463 42.8195C94.3568 43.3676 93.8947 44.036 93.5916 44.4837C93.4171 44.7422 93.1883 44.9758 92.9782 45.1873C92.689 45.4755 92.407 45.7649 92.3714 46.0122C92.3594 46.0921 92.37 46.1838 92.3804 46.2726C92.3878 46.3358 92.3949 46.3978 92.394 46.4531C92.3168 46.5514 92.2435 46.6437 92.1644 46.7441C91.9739 46.8982 91.7111 47.1487 91.5933 47.4633C91.5131 47.5631 91.4387 47.6544 91.3529 47.7618C91.1738 47.9857 91.004 48.1944 90.8392 48.3946C90.7862 48.4586 90.7302 48.5268 90.6692 48.6019C90.6687 48.6026 90.6681 48.6033 90.6675 48.604C90.5476 48.7512 90.4307 48.8931 90.3197 49.0262C90.2721 49.0832 90.2253 49.139 90.1793 49.1936C90.0534 49.3452 89.9165 49.5114 89.7974 49.6515C89.732 49.729 89.6764 49.7925 89.6061 49.8763C89.4873 50.0189 89.3766 50.1493 89.276 50.265C89.2081 50.34 89.0845 50.4914 89.0059 50.5799C88.9334 50.6603 88.8176 50.7993 88.7421 50.8823C88.7298 50.8959 88.7171 50.9065 88.7043 50.9141C88.6789 50.9389 88.6556 50.9577 88.6398 50.9638C88.6077 50.9766 88.5934 50.9577 88.5739 50.9447C88.5558 50.9297 88.5336 50.9214 88.5367 50.8869C88.5379 50.8701 88.5497 50.8418 88.5653 50.8111C88.5688 50.7969 88.5753 50.7816 88.5845 50.7659C88.6416 50.6695 88.7387 50.5178 88.793 50.4242C88.8534 50.3224 88.9583 50.1586 89.0081 50.0706C89.0862 49.9391 89.1741 49.7931 89.2705 49.6351C89.3267 49.5422 89.3687 49.4691 89.4204 49.3822C89.5136 49.2245 89.625 49.0404 89.725 48.872C89.7609 48.8106 89.7976 48.748 89.835 48.6842C89.9226 48.5349 90.0161 48.3769 90.1127 48.2139C90.1133 48.2129 90.1139 48.2119 90.1145 48.2109C90.1635 48.1285 90.2071 48.0538 90.2484 47.9824C90.3781 47.7592 90.5129 47.5278 90.6573 47.2817C90.736 47.1477 90.7998 47.0355 90.8725 46.9098C90.9122 46.841 90.9521 46.7716 90.9917 46.7028C91.0134 46.6653 91.0356 46.627 91.058 46.5884C91.5752 45.693 92.0619 44.8314 92.5669 43.9304C93.0572 43.0518 93.5485 42.1597 94.0335 41.2629C94.5118 40.377 94.9901 39.477 95.4555 38.5809C98.368 32.8945 101.194 26.9907 102.468 21.0295C102.636 20.1853 102.763 19.3256 102.816 18.5105C102.869 17.6858 102.853 16.9131 102.734 16.1757C102.697 15.9557 102.653 15.7455 102.593 15.526Z" fill="black"/>
<path d="M102.593 15.526C102.477 15.1008 102.342 14.715 102.176 14.3711C101.448 12.9359 100.621 11.5687 99.3679 10.5343C97.2951 8.81506 94.5108 8.16236 91.7717 7.57781C89.0211 6.98739 86.0854 6.76004 83.1379 6.68286C80.1668 6.61025 77.1981 6.69288 74.1983 6.84869C71.2064 7.00556 68.1985 7.23904 65.1852 7.51552C63.1684 7.69898 61.1017 7.91024 59.0681 8.13181C58.1884 8.22684 57.2471 8.33578 56.3809 8.43419C55.7204 8.51001 55.051 8.58898 54.3727 8.67109C54.2784 8.68243 54.1846 8.67559 54.1117 8.6508C54.0388 8.62595 53.9928 8.58547 53.9839 8.53652C53.975 8.48754 54.0039 8.43316 54.0635 8.38412C54.1231 8.33519 54.2087 8.29579 54.301 8.2732C54.9709 8.10987 55.6321 7.94968 56.2846 7.79263C56.9933 7.62109 57.7637 7.44057 58.4904 7.27045C58.6416 7.45158 58.8279 7.5766 59.1365 7.59322C59.294 7.60168 59.5166 7.57851 59.6717 7.51377C59.8088 7.45598 59.9156 7.37632 60.013 7.30119C60.1155 7.22249 60.2127 7.14785 60.3463 7.10492C60.5729 7.03205 60.7784 6.91002 60.9932 6.78223C61.0714 6.73572 61.151 6.68839 61.2331 6.64245C61.9337 6.48529 62.625 6.33227 63.3439 6.17799C63.6239 6.15602 63.8791 6.13416 64.091 6.09297C64.2812 6.05603 64.449 5.98667 64.6139 5.90728C64.7216 5.88454 64.8291 5.86192 64.9363 5.8394C65.648 5.69126 66.3667 5.54583 67.0638 5.40725C67.6078 5.38504 68.2298 5.35178 68.9864 5.27448C69.3141 5.24097 69.637 5.22853 69.9448 5.21759C70.4127 5.19971 70.8588 5.18391 71.2326 5.1091C71.4834 5.05897 71.7513 5.05617 72.0162 5.05429C72.3642 5.05259 72.7411 5.0487 73.0562 4.93502C73.2557 4.86337 73.4363 4.78346 73.6029 4.70971C73.868 4.59239 74.0981 4.49068 74.3119 4.46366C74.7091 4.41334 75.0795 4.31272 75.3858 4.22693C75.7586 4.12334 76.0678 4.03829 76.347 4.07653C76.3893 4.08233 76.4378 4.09072 76.4923 4.10036C76.7758 4.15155 77.2664 4.23064 77.9141 4.11778C78.1457 4.07756 78.3589 4.00183 78.5667 3.92823C78.8706 3.82098 79.1867 3.71689 79.5163 3.73585C79.5659 3.73867 79.6185 3.75932 79.6663 3.77823C79.7271 3.80228 79.78 3.82334 79.8095 3.80096C79.8959 3.73531 80.0344 3.6606 80.1843 3.57982C80.2944 3.52046 80.4108 3.45777 80.5175 3.3929C81.3929 3.31919 82.2099 3.26077 83.0958 3.21738C83.4934 3.19773 83.8854 3.18175 84.2717 3.16949C84.4781 3.26182 84.6886 3.34601 84.9075 3.41134C85.1945 3.4968 85.5593 3.52808 86.0278 3.57532C86.3863 3.61061 86.7986 3.65492 87.2643 3.73787C88.1451 3.89158 89.0242 3.94513 89.6325 3.95524C89.7576 3.95681 89.8829 3.95814 90.0162 3.95995C90.5114 3.96837 91.1638 3.9751 92.3664 4.12433C93.509 4.26982 94.4668 4.50147 95.2017 4.71178C95.5725 4.81769 95.865 4.9104 96.109 4.98464C96.5196 5.10936 96.9956 5.27328 97.4939 5.47218C98.2526 5.77075 99.0105 6.14642 99.439 6.35998C99.5929 6.43579 99.754 6.51537 99.9258 6.60429C100.4 6.85143 100.976 7.17021 101.699 7.72455C102.451 8.30797 102.854 8.75146 103.234 9.2289C103.388 9.42428 103.474 9.64059 103.556 9.86131C103.673 10.1752 103.784 10.5004 104.073 10.8296C104.141 10.906 104.22 10.9826 104.302 11.0639C104.452 11.213 104.614 11.3787 104.728 11.5831C104.768 11.6539 104.788 11.7241 104.808 11.7934C104.83 11.8697 104.851 11.9443 104.895 12.0165C105.016 12.2166 105.136 12.413 105.246 12.5983C105.29 12.6725 105.332 12.7456 105.372 12.817C105.569 13.1745 105.703 13.4906 105.761 13.6952C105.862 14.0535 106.004 14.4166 106.126 14.8074C106.22 15.1135 106.293 15.3894 106.33 15.6829C106.44 16.532 106.524 17.6298 106.518 18.7407C106.516 19.1765 106.427 19.511 106.299 19.9446C106.221 20.2102 106.122 20.5347 106.018 20.8958C105.959 21.1038 105.964 21.2925 105.966 21.4689C105.968 21.6313 105.968 21.7833 105.914 21.9272C105.867 22.0541 105.776 22.1212 105.69 22.1814C105.595 22.2465 105.506 22.3069 105.486 22.4416C105.475 22.5132 105.488 22.6073 105.503 22.72C105.509 22.7646 105.514 22.8123 105.519 22.8625C105.506 22.8563 105.493 22.8523 105.484 22.8497C105.416 22.8312 105.344 22.9562 105.272 23.0788C105.243 23.1277 105.214 23.1765 105.186 23.2153C105.083 23.3575 104.984 23.6596 104.919 23.8791C104.892 23.9737 104.844 24.0528 104.788 24.145C104.739 24.2269 104.683 24.3191 104.627 24.4422C104.595 24.5124 104.558 24.5621 104.526 24.6031C104.503 24.6327 104.484 24.6579 104.472 24.6835C104.463 24.7057 104.476 24.7306 104.49 24.7586C104.501 24.7788 104.512 24.8007 104.516 24.8244C104.526 24.8811 104.513 24.9455 104.49 24.9859C104.479 25.0046 104.466 25.0179 104.454 25.031C104.439 25.0464 104.424 25.0616 104.412 25.0856C104.359 25.1956 104.344 25.3087 104.326 25.43C104.308 25.5625 104.287 25.7014 104.215 25.8389C104.193 25.8822 104.161 25.9256 104.131 25.9676C104.099 26.0115 104.068 26.0543 104.049 26.0935C103.973 26.2528 103.962 26.4255 103.95 26.5853C103.943 26.6917 103.935 26.7918 103.91 26.875C103.863 27.0285 103.888 27.1308 103.906 27.2065C103.915 27.2457 103.923 27.2778 103.918 27.3062C103.906 27.3297 103.895 27.3535 103.883 27.3766C103.87 27.397 103.857 27.418 103.85 27.4398C103.849 27.4415 103.849 27.4432 103.848 27.4448C103.781 27.5736 103.708 27.6977 103.636 27.821C103.472 28.0974 103.307 28.3734 103.203 28.6826C103.18 28.7498 103.175 28.8259 103.169 28.9034C103.161 28.9983 103.154 29.0957 103.114 29.181C103.019 29.3845 102.889 29.5756 102.761 29.7633C102.566 30.0485 102.379 30.3139 102.311 30.6143C102.289 30.7131 102.28 30.8159 102.271 30.9192C102.267 30.9767 102.262 31.0346 102.254 31.0919C102.23 31.0673 102.204 31.0484 102.181 31.0309C102.132 30.9947 102.09 30.9636 102.073 30.8976C102.034 30.7415 101.966 30.5548 101.866 30.5255C101.839 30.5175 101.812 30.5013 101.786 30.4847C101.718 30.443 101.65 30.4006 101.569 30.4888C101.514 30.5483 101.379 30.7034 101.379 30.8431C101.379 30.8736 101.395 30.8998 101.413 30.929C101.445 30.9815 101.483 31.0439 101.444 31.1584C101.438 31.1776 101.43 31.1984 101.422 31.2198C101.39 31.3051 101.354 31.3999 101.375 31.4518C101.4 31.5117 101.453 31.5273 101.515 31.5454C101.596 31.5691 101.693 31.5969 101.759 31.7335C101.772 31.7605 101.764 31.796 101.758 31.8229C101.753 31.8418 101.75 31.8563 101.756 31.8607C101.762 31.8657 101.78 31.8677 101.803 31.8702C101.883 31.8789 102.023 31.8941 101.941 32.0741C101.919 32.1228 101.886 32.1749 101.857 32.2216C101.814 32.2904 101.778 32.3475 101.793 32.3652C101.799 32.3718 101.806 32.3779 101.814 32.3838C101.783 32.4403 101.752 32.4969 101.721 32.5534C101.661 32.6159 101.612 32.7207 101.549 32.8514C101.534 32.8831 101.518 32.9165 101.501 32.951C101.439 33.0622 101.377 33.1733 101.315 33.2842C101.259 33.369 101.195 33.4561 101.118 33.5437C100.965 33.719 100.792 33.8507 100.622 33.9785C100.551 34.0324 100.48 34.0856 100.411 34.1412C100.422 34.1112 100.431 34.0836 100.435 34.061C100.462 33.9058 100.406 33.809 100.355 33.7201C100.321 33.661 100.289 33.6053 100.284 33.5382C100.275 33.4155 100.204 33.3905 100.151 33.3719C100.124 33.3623 100.101 33.3542 100.095 33.3354C100.091 33.3202 100.098 33.2948 100.105 33.2684C100.112 33.2455 100.118 33.2218 100.117 33.2039C100.105 32.9872 100.023 33.0084 99.9031 33.0387C99.837 33.0554 99.7596 33.0746 99.6762 33.0588C99.5901 33.0377 99.5709 33.0199 99.585 32.9175C99.5124 32.9656 99.4398 33.0135 99.3671 33.0614C99.3559 33.0891 99.3691 33.1213 99.3938 33.1699C99.4378 33.2566 99.3782 33.4339 99.3311 33.5723C99.3093 33.6364 99.2904 33.6922 99.2858 33.7269C99.2614 33.9116 99.3643 33.9085 99.455 33.9056C99.505 33.904 99.5511 33.9025 99.5702 33.9326C99.5784 33.9455 99.5951 33.942 99.612 33.9386C99.625 33.936 99.6384 33.9332 99.6481 33.9379C99.7188 33.9725 99.722 34.0916 99.7248 34.2023C99.7264 34.2656 99.728 34.3262 99.742 34.3666C99.7463 34.3789 99.7516 34.3897 99.7568 34.4C99.7645 34.415 99.7717 34.4295 99.7748 34.4479C99.7817 34.4896 99.7644 34.559 99.7452 34.6351C99.7354 34.6741 99.7251 34.7149 99.7174 34.7545C99.7075 34.8058 99.7263 34.8364 99.746 34.8684C99.7599 34.8911 99.774 34.9147 99.779 34.9467C99.7878 35.0046 99.7542 35.0941 99.7229 35.1769C99.7093 35.213 99.6962 35.248 99.6872 35.2786C99.6835 35.291 99.6853 35.2989 99.6911 35.3035C99.6442 35.442 99.6006 35.5749 99.5581 35.7041C99.3462 36.3491 99.153 36.9179 98.6582 37.6304C98.5647 37.7649 98.48 37.9187 98.4005 38.0805C98.0869 38.5635 97.7762 39.032 97.4567 39.5068C97.3378 39.5684 97.2159 39.6572 97.0921 39.7735C96.8597 39.9918 96.6822 40.2506 96.4736 40.5519C96.3174 40.7777 96.1395 41.0342 95.912 41.3099C95.5328 41.7678 95.1433 42.2604 94.7463 42.8195C94.3568 43.3676 93.8947 44.036 93.5916 44.4837C93.4171 44.7422 93.1883 44.9758 92.9782 45.1873C92.689 45.4755 92.407 45.7649 92.3714 46.0122C92.3594 46.0921 92.37 46.1838 92.3804 46.2726C92.3878 46.3358 92.3949 46.3978 92.394 46.4531C92.3168 46.5514 92.2435 46.6437 92.1644 46.7441C91.9739 46.8982 91.7111 47.1487 91.5933 47.4633C91.5131 47.5631 91.4387 47.6544 91.3529 47.7618C91.1738 47.9857 91.004 48.1944 90.8392 48.3946C90.7862 48.4586 90.7302 48.5268 90.6692 48.6019C90.6687 48.6026 90.6681 48.6033 90.6675 48.604C90.5476 48.7512 90.4307 48.8931 90.3197 49.0262C90.2721 49.0832 90.2253 49.139 90.1793 49.1936C90.0534 49.3452 89.9165 49.5114 89.7974 49.6515C89.732 49.729 89.6764 49.7925 89.6061 49.8763C89.4873 50.0189 89.3766 50.1493 89.276 50.265C89.2081 50.34 89.0845 50.4914 89.0059 50.5799C88.9334 50.6603 88.8176 50.7993 88.7421 50.8823C88.7298 50.8959 88.7171 50.9065 88.7043 50.9141C88.6789 50.9389 88.6556 50.9577 88.6398 50.9638C88.6077 50.9766 88.5934 50.9577 88.5739 50.9447C88.5558 50.9297 88.5336 50.9214 88.5367 50.8869C88.5379 50.8701 88.5497 50.8418 88.5653 50.8111C88.5688 50.7969 88.5753 50.7816 88.5845 50.7659C88.6416 50.6695 88.7387 50.5178 88.793 50.4242C88.8534 50.3224 88.9583 50.1586 89.0081 50.0706C89.0862 49.9391 89.1741 49.7931 89.2705 49.6351C89.3267 49.5422 89.3687 49.4691 89.4204 49.3822C89.5136 49.2245 89.625 49.0404 89.725 48.872C89.7609 48.8106 89.7976 48.748 89.835 48.6842C89.9226 48.5349 90.0161 48.3769 90.1127 48.2139C90.1133 48.2129 90.1139 48.2119 90.1145 48.2109C90.1635 48.1285 90.2071 48.0538 90.2484 47.9824C90.3781 47.7592 90.5129 47.5278 90.6573 47.2817C90.736 47.1477 90.7998 47.0355 90.8725 46.9098C90.9122 46.841 90.9521 46.7716 90.9917 46.7028C91.0134 46.6653 91.0356 46.627 91.058 46.5884C91.5752 45.693 92.0619 44.8314 92.5669 43.9304C93.0572 43.0518 93.5485 42.1597 94.0335 41.2629C94.5118 40.377 94.9901 39.477 95.4555 38.5809C98.368 32.8945 101.194 26.9907 102.468 21.0295C102.636 20.1853 102.763 19.3256 102.816 18.5105C102.869 17.6858 102.853 16.9131 102.734 16.1757C102.697 15.9557 102.653 15.7455 102.593 15.526Z" fill="black"/>
</svg>
